<?xml version="1.0" encoding="UTF-8"?>
<svg version="1.1" xmlns="http://www.w3.org/2000/svg" width="444" height="491">
<path d="M0 0 C146.52 0 293.04 0 444 0 C444 162.03 444 324.06 444 491 C297.48 491 150.96 491 0 491 C0 328.97 0 166.94 0 0 Z " fill="#E6E6E6" transform="translate(0,0)"/>
<path d="M0 0 C146.52 0 293.04 0 444 0 C444 162.03 444 324.06 444 491 C297.48 491 150.96 491 0 491 C0 328.97 0 166.94 0 0 Z M162 8 C161.89698586 9.33993616 161.86151547 10.68517965 161.85473633 12.02905273 C161.84835648 12.88341415 161.84197662 13.73777557 161.83540344 14.61802673 C161.83429062 15.54716385 161.8331778 16.47630096 161.83203125 17.43359375 C161.82870285 18.38186539 161.82537445 19.33013702 161.82194519 20.30714417 C161.81687181 22.31714389 161.81453699 24.32715208 161.81469727 26.3371582 C161.81251178 29.42087619 161.79436317 32.50423606 161.77539062 35.58789062 C161.77245666 37.5364571 161.77047188 39.48502529 161.76953125 41.43359375 C161.75875298 42.82426308 161.75875298 42.82426308 161.74775696 44.24302673 C161.75083359 45.10054031 161.75391022 45.95805389 161.75708008 46.84155273 C161.75565506 47.59798569 161.75423004 48.35441864 161.75276184 49.1337738 C161.84005233 51.24546284 161.84005233 51.24546284 164 53 C167.11038944 53.27904629 167.11038944 53.27904629 170.7578125 53.1953125 C171.42086395 53.1924826 172.08391541 53.18965271 172.76705933 53.18673706 C174.88655583 53.17553435 177.00563104 53.15043051 179.125 53.125 C180.56119182 53.11497028 181.99739025 53.10584441 183.43359375 53.09765625 C186.95602238 53.07729539 190.47753917 53.0381494 194 53 C194 58.28 194 63.56 194 69 C192.535625 69.144375 191.07125 69.28875 189.5625 69.4375 C187.70786909 69.62035093 185.85378034 69.80871821 184 70 C183.32404785 70.05913574 182.6480957 70.11827148 181.95166016 70.17919922 C176.53317234 70.69720337 171.47638042 71.74566239 166.25 73.25 C165.07775879 73.58269897 165.07775879 73.58269897 163.88183594 73.92211914 C157.08934748 75.89316617 150.53127215 78.28475203 144 81 C142.89527344 81.43957031 141.79054687 81.87914063 140.65234375 82.33203125 C127.31639723 87.78969595 115.01382342 95.08411211 103 103 C99.99234114 100.15063897 97.72154788 97.76488042 96 94 C96.63808594 93.54109375 97.27617188 93.0821875 97.93359375 92.609375 C98.75988281 91.99578125 99.58617188 91.3821875 100.4375 90.75 C101.26121094 90.14671875 102.08492188 89.5434375 102.93359375 88.921875 C105.20733982 86.80716221 105.69607329 86.03090219 106 83 C105.04365887 80.99058613 105.04365887 80.99058613 103.47265625 79.109375 C102.65571289 78.04589844 102.65571289 78.04589844 101.82226562 76.9609375 C101.24154297 76.23132813 100.66082031 75.50171875 100.0625 74.75 C99.48564453 74.00492187 98.90878906 73.25984375 98.31445312 72.4921875 C96.88738495 70.65233102 95.44916934 68.82246421 94 67 C88.93547369 67.41012172 85.91606377 70.15790134 82.1875 73.3125 C80.84679918 74.41618821 79.50429323 75.51768665 78.16015625 76.6171875 C77.47195801 77.18147461 76.78375977 77.74576172 76.07470703 78.32714844 C72.82183983 80.94995923 69.47953391 83.44685523 66.125 85.9375 C59.68844718 90.72787968 53.2988935 95.57538841 46.93408203 100.46069336 C46.27520996 100.96608643 45.61633789 101.47147949 44.9375 101.9921875 C44.29683594 102.48944336 43.65617187 102.98669922 42.99609375 103.49902344 C41.59874028 104.54977309 40.17092482 105.56065676 38.72265625 106.54003906 C37.98917969 107.0450293 37.25570312 107.55001953 36.5 108.0703125 C35.8296875 108.51391113 35.159375 108.95750977 34.46875 109.41455078 C32.76990685 110.94721005 32.76990685 110.94721005 32.64624023 113.45898438 C33.22471548 117.6141054 35.53090784 120.13853317 38.0625 123.375 C38.52849609 124.02855469 38.99449219 124.68210937 39.47460938 125.35546875 C40.88752959 127.18169216 42.13107621 128.64184865 44 130 C48.3194735 130.08768162 51.28510201 129.43612247 54.4375 126.4375 C55.283125 125.633125 56.12875 124.82875 57 124 C61.22435427 125.56457565 63.49058647 128.343426 66 132 C65.88033351 136.77868194 63.20871834 139.41232222 60.125 142.75 C53.49213852 150.26040314 48.19987873 158.45646884 43 167 C42.44119141 167.91483154 42.44119141 167.91483154 41.87109375 168.84814453 C13.54293278 215.6653958 6.592445 271.95357048 18.25390625 325.125 C19.0476825 328.18373988 19.97633973 331.08119323 21.19140625 333.99609375 C22.2187378 336.54208933 23.03524049 339.13629067 23.875 341.75 C32.80418554 368.60469335 47.44538221 392.75835677 66 414 C66.639375 414.75152344 67.27875 415.50304687 67.9375 416.27734375 C92.41451899 444.89052567 126.79573887 466.02706696 163 476 C164.11375 476.30679687 165.2275 476.61359375 166.375 476.9296875 C170.56886075 478.02334515 174.77781573 479.02277914 179 480 C179.77746582 480.18916992 180.55493164 480.37833984 181.35595703 480.57324219 C206.45008367 486.51512785 235.8084218 486.64177861 261 481 C261.84578613 480.82307617 262.69157227 480.64615234 263.56298828 480.46386719 C304.7275098 471.8141637 339.62752716 451.86566728 370 423 C370.84046875 422.20207031 371.6809375 421.40414063 372.546875 420.58203125 C377.86090623 415.40543186 382.55399696 409.93584533 387 404 C387.43683105 403.41782715 387.87366211 402.8356543 388.32373047 402.23583984 C400.80318829 385.46375699 411.00165395 367.8714643 418.18896484 348.21289062 C418.92282386 346.21057331 419.68365614 344.22167571 420.45703125 342.234375 C433.45843675 307.82582148 437.58195023 259.70597227 424.83984375 224.5859375 C423.96638824 221.89650704 423.30823644 219.18577182 422.66845703 216.43261719 C415.6179177 186.2691931 398.28117735 159.0161172 378 136 C377.55930176 135.49082031 377.11860352 134.98164063 376.66455078 134.45703125 C360.57935298 115.89672886 340.58233237 101.32389761 318.87988281 89.98242188 C317.31554837 89.16490476 315.76181198 88.32714713 314.2109375 87.484375 C299.15546791 79.52864191 281.98565338 74.47178081 265.4375 70.6875 C264.69967285 70.51589355 263.9618457 70.34428711 263.20166016 70.16748047 C262.14084229 69.93569092 262.14084229 69.93569092 261.05859375 69.69921875 C260.44298584 69.56346436 259.82737793 69.42770996 259.19311523 69.2878418 C256.15331183 68.88887395 253.06587346 69 250 69 C250 63.72 250 58.44 250 53 C252.14242187 53.02320313 254.28484375 53.04640625 256.4921875 53.0703125 C258.56395882 53.08590373 260.63572363 53.09805145 262.70751953 53.10986328 C264.14895547 53.11992963 265.59037095 53.1335838 267.03173828 53.15087891 C269.10193934 53.17510012 271.17187076 53.18647641 273.2421875 53.1953125 C274.4885498 53.20578613 275.73491211 53.21625977 277.01904297 53.22705078 C280.11771631 53.31652492 280.11771631 53.31652492 282 51 C282.29800328 49.06880015 282.29800328 49.06880015 282.24291992 46.84155273 C282.24599655 45.98403915 282.24907318 45.12652557 282.25224304 44.24302673 C282.24505753 43.31591385 282.23787201 42.38880096 282.23046875 41.43359375 C282.23001053 40.48436539 282.22955231 39.53513702 282.2290802 38.55714417 C282.22605638 36.54890697 282.21816624 34.54067216 282.20581055 32.5324707 C282.18755439 29.44669351 282.18530082 26.36121617 282.18554688 23.27539062 C282.18063183 21.32812239 282.17480357 19.3808562 282.16796875 17.43359375 C282.16629951 16.03988808 282.16629951 16.03988808 282.16459656 14.61802673 C282.15502678 13.3364846 282.15502678 13.3364846 282.14526367 12.02905273 C282.14145187 11.27341537 282.13764008 10.51777802 282.13371277 9.73924255 C282.18750911 7.97056778 282.18750911 7.97056778 281 7 C279.4714651 6.90201612 277.93841036 6.87368169 276.40673828 6.87301636 C275.4139386 6.87019653 274.42113892 6.86737671 273.39825439 6.86447144 C272.30003357 6.86649567 271.20181274 6.8685199 270.0703125 6.87060547 C268.34612091 6.86797699 268.34612091 6.86797699 266.58709717 6.86529541 C262.766383 6.8608741 258.94571468 6.86381587 255.125 6.8671875 C252.48323559 6.86651454 249.84147123 6.86554458 247.19970703 6.86428833 C241.65461729 6.86246679 236.10954085 6.86487253 230.56445312 6.86962891 C224.14505256 6.8750715 217.72568375 6.87330883 211.30628395 6.8678025 C205.14199017 6.86272574 198.97771052 6.86325289 192.81341553 6.86618423 C190.1850382 6.86685378 187.55666008 6.86602412 184.92828369 6.86370468 C181.26206277 6.86117981 177.59590378 6.86501643 173.9296875 6.87060547 C172.83146667 6.86858124 171.73324585 6.86655701 170.60174561 6.86447144 C169.11254608 6.86870117 169.11254608 6.86870117 167.59326172 6.87301636 C166.29133377 6.8735819 166.29133377 6.8735819 164.96310425 6.87415886 C162.99660944 6.7832494 162.99660944 6.7832494 162 8 Z " fill="#FDFEFD" transform="translate(0,0)"/>
<path d="M0 0 C1.48919952 -0.00422974 1.48919952 -0.00422974 3.00848389 -0.00854492 C4.10670471 -0.00652069 5.20492554 -0.00449646 6.33642578 -0.00241089 C7.48588684 -0.00416321 8.6353479 -0.00591553 9.81964111 -0.00772095 C13.64035528 -0.01214226 17.4610236 -0.00920048 21.28173828 -0.00582886 C23.9235027 -0.00650182 26.56526705 -0.00747177 29.20703125 -0.00872803 C34.75212099 -0.01054957 40.29719743 -0.00814383 45.84228516 -0.00338745 C52.26168572 0.00205514 58.68105453 0.00029247 65.10045433 -0.00521386 C71.26474811 -0.01029062 77.42902776 -0.00976347 83.59332275 -0.00683212 C86.22170008 -0.00616257 88.8500782 -0.00699224 91.47845459 -0.00931168 C95.14467551 -0.01183655 98.8108345 -0.00799993 102.47705078 -0.00241089 C103.57527161 -0.00443512 104.67349243 -0.00645935 105.80499268 -0.00854492 C106.79779236 -0.0057251 107.79059204 -0.00290527 108.81347656 0 C109.68142853 0.00037703 110.54938049 0.00075405 111.44363403 0.0011425 C113.40673828 0.12698364 113.40673828 0.12698364 114.40673828 1.12698364 C114.50975242 2.4669198 114.54522281 3.81216329 114.55200195 5.15603638 C114.56157173 6.43757851 114.56157173 6.43757851 114.57133484 7.74501038 C114.57300407 9.13871605 114.57300407 9.13871605 114.57470703 10.56057739 C114.57803543 11.50884903 114.58136383 12.45712067 114.58479309 13.43412781 C114.58986647 15.44412754 114.59220129 17.45413572 114.59204102 19.46414185 C114.5942265 22.54785984 114.61237511 25.63121971 114.63134766 28.71487427 C114.63428163 30.66344075 114.6362664 32.61200893 114.63720703 34.56057739 C114.64439255 35.48769028 114.65157806 36.41480316 114.65898132 37.37001038 C114.65590469 38.22752396 114.65282806 39.08503754 114.6496582 39.96853638 C114.65108322 40.72496933 114.65250824 41.48140228 114.65397644 42.26075745 C114.40673828 44.12698364 114.40673828 44.12698364 112.40673828 46.12698364 C109.42578125 46.35403442 109.42578125 46.35403442 105.64892578 46.32229614 C104.98587433 46.31946625 104.32282288 46.31663635 103.63967896 46.3137207 C101.52018245 46.30251799 99.40110724 46.27741415 97.28173828 46.25198364 C95.84554646 46.24195392 94.40934803 46.23282805 92.97314453 46.22463989 C89.4507159 46.20427903 85.92919911 46.16513304 82.40673828 46.12698364 C82.40673828 51.40698364 82.40673828 56.68698364 82.40673828 62.12698364 C84.71673828 62.12698364 87.02673828 62.12698364 89.40673828 62.12698364 C92.17861863 62.59679387 94.86223365 63.11718627 97.59423828 63.75198364 C98.37033447 63.93019653 99.14643066 64.10840942 99.94604492 64.29202271 C129.91757275 71.3666799 158.62070491 83.1709048 182.40673828 103.12698364 C183.31939453 103.85143677 184.23205078 104.57588989 185.17236328 105.32229614 C206.33350618 122.19075006 222.68138872 141.85895312 236.40673828 165.12698364 C236.84373047 165.85788208 237.28072266 166.58878052 237.73095703 167.34182739 C247.65703151 184.52284003 254.28918815 202.75515381 258.40673828 222.12698364 C258.75440678 223.44121988 259.10781089 224.75396446 259.46923828 226.06448364 C268.91981596 263.6305299 264.23856825 306.23066445 250.25195312 341.93118286 C249.50194584 343.879642 248.80394705 345.84794351 248.11376953 347.81838989 C241.50870246 366.00772845 230.47540627 383.07133151 218.40673828 398.12698364 C217.96797363 398.67854126 217.52920898 399.23009888 217.07714844 399.79837036 C196.41581699 425.55530928 170.20244977 445.11146104 140.40673828 459.12698364 C139.35744141 459.62842896 138.30814453 460.12987427 137.22705078 460.64651489 C119.12425555 468.87308491 100.00584296 473.27599935 80.40673828 476.12698364 C79.32392578 476.30205444 78.24111328 476.47712524 77.12548828 476.65750122 C73.05790378 477.17102308 69.0949204 477.3236142 65.00048828 477.36526489 C64.20659195 477.37496811 63.41269562 477.38467133 62.59474182 477.39466858 C60.03202217 477.4195442 57.46956656 477.43219142 54.90673828 477.43948364 C54.0325827 477.44210205 53.15842712 477.44472046 52.25778198 477.44741821 C38.26988495 477.45190856 25.04000475 476.44417636 11.40673828 473.12698364 C10.62282715 472.9455481 9.83891602 472.76411255 9.03125 472.57717896 C4.46280462 471.51958818 -0.07175162 470.37249221 -4.59326172 469.12698364 C-5.76759766 468.80471802 -6.94193359 468.48245239 -8.15185547 468.15042114 C-13.76579315 466.48089598 -19.15841897 464.30092074 -24.59326172 462.12698364 C-25.71216797 461.68354614 -26.83107422 461.24010864 -27.98388672 460.78323364 C-52.88013076 450.55190047 -74.2467726 434.61955875 -93.59326172 416.12698364 C-94.60839844 415.17372192 -94.60839844 415.17372192 -95.64404297 414.20120239 C-112.21289077 398.24178347 -124.75071021 377.60472798 -134.65625 357.03591919 C-135.28143908 355.76224712 -135.92582461 354.49782162 -136.58886719 353.24343872 C-139.43169165 347.82589023 -141.35920278 342.25932523 -143.21826172 336.43948364 C-143.81329195 334.60181485 -144.40960515 332.76456088 -145.00732422 330.92776489 C-145.26465332 330.12508179 -145.52198242 329.32239868 -145.78710938 328.49539185 C-146.35926533 326.81444547 -146.98467857 325.15121076 -147.64575195 323.50320435 C-163.88262746 282.78341324 -155.01871354 225.82917647 -138.57763672 186.71047974 C-130.01095023 166.94396944 -118.51405875 148.87987217 -104.37841797 132.63479614 C-102.46517002 129.94703863 -101.6353528 128.42587225 -101.59326172 125.12698364 C-102.9783052 122.80253134 -102.9783052 122.80253134 -105.03076172 120.81448364 C-105.68947266 120.11710083 -106.34818359 119.41971802 -107.02685547 118.70120239 C-107.54376953 118.18171021 -108.06068359 117.66221802 -108.59326172 117.12698364 C-111.14410056 118.34480348 -113.21648624 119.57782692 -115.53076172 121.25198364 C-118.85567665 123.28764584 -119.82847301 123.8810422 -123.59326172 123.12698364 C-125.87135517 121.15535494 -127.60608327 118.84466138 -129.40576172 116.43948364 C-130.15889648 115.50072388 -130.15889648 115.50072388 -130.92724609 114.54299927 C-134.4828578 109.92312283 -134.4828578 109.92312283 -134.94360352 106.60061646 C-134.59326172 104.12698364 -134.59326172 104.12698364 -133.19482422 102.46463013 C-132.54255859 101.98066772 -131.89029297 101.49670532 -131.21826172 100.99807739 C-130.48824951 100.44410278 -129.7582373 99.89012817 -129.00610352 99.31936646 C-128.20986572 98.74025513 -127.41362793 98.1611438 -126.59326172 97.56448364 C-125.77962158 96.95314575 -124.96598145 96.34180786 -124.12768555 95.71194458 C-121.62628683 93.83632049 -119.11031367 91.98152242 -116.59326172 90.12698364 C-115.15816484 89.05216478 -113.72448077 87.97545594 -112.29248047 86.89651489 C-109.64835586 84.90498951 -107.00003914 82.91934231 -104.34716797 80.93948364 C-100.78521082 78.27647486 -97.24545771 75.58582412 -93.71826172 72.87698364 C-92.67927734 72.08163208 -91.64029297 71.28628052 -90.56982422 70.46682739 C-88.59562271 68.91492883 -86.65180929 67.32352493 -84.74169922 65.69338989 C-83.86771484 64.94960083 -82.99373047 64.20581177 -82.09326172 63.43948364 C-81.34044922 62.77561646 -80.58763672 62.11174927 -79.81201172 61.42776489 C-77.59326172 60.12698364 -77.59326172 60.12698364 -75.17919922 59.96292114 C-71.16029009 61.77203734 -69.2184507 64.90416351 -66.71826172 68.43948364 C-65.95255859 69.45558716 -65.95255859 69.45558716 -65.17138672 70.49221802 C-61.52613465 75.53153271 -61.52613465 75.53153271 -61.83081055 78.23416138 C-62.9455492 81.00155453 -64.77389451 82.13251752 -67.15576172 83.87698364 C-67.98205078 84.49057739 -68.80833984 85.10417114 -69.65966797 85.73635864 C-70.29775391 86.19526489 -70.93583984 86.65417114 -71.59326172 87.12698364 C-69.87171384 90.89186406 -67.60092058 93.27762261 -64.59326172 96.12698364 C-63.91521484 95.69128052 -63.23716797 95.25557739 -62.53857422 94.80667114 C-61.60787109 94.21112427 -60.67716797 93.61557739 -59.71826172 93.00198364 C-58.81333984 92.42190552 -57.90841797 91.84182739 -56.97607422 91.24417114 C-55.85974609 90.54549927 -54.74341797 89.84682739 -53.59326172 89.12698364 C-52.87050049 88.67121948 -52.14773926 88.21545532 -51.40307617 87.74588013 C-44.99375771 83.78890075 -38.39076831 80.53797051 -31.53076172 77.43948364 C-30.50660156 76.96704224 -29.48244141 76.49460083 -28.42724609 76.00784302 C-22.57324784 73.34081378 -16.75239672 70.98369341 -10.59326172 69.12698364 C-9.51709595 68.79863525 -9.51709595 68.79863525 -8.41918945 68.46365356 C3.07454907 65.02875796 14.33029075 62.12698364 26.40673828 62.12698364 C26.40673828 56.84698364 26.40673828 51.56698364 26.40673828 46.12698364 C23.19310547 46.16178833 23.19310547 46.16178833 19.91455078 46.19729614 C17.84277946 46.21288737 15.77101465 46.22503509 13.69921875 46.23684692 C12.25778281 46.24691327 10.81636733 46.26056745 9.375 46.27786255 C7.30479895 46.30208376 5.23486752 46.31346006 3.16455078 46.32229614 C1.29500732 46.33800659 1.29500732 46.33800659 -0.61230469 46.35403442 C-3.59326172 46.12698364 -3.59326172 46.12698364 -5.59326172 44.12698364 C-5.84049988 42.26075745 -5.84049988 42.26075745 -5.83618164 39.96853638 C-5.83925827 39.1110228 -5.8423349 38.25350922 -5.84550476 37.37001038 C-5.83472649 35.97934105 -5.83472649 35.97934105 -5.82373047 34.56057739 C-5.82327225 33.61134903 -5.82281403 32.66212067 -5.82234192 31.68412781 C-5.8193181 29.67589062 -5.81142796 27.6676558 -5.79907227 25.65945435 C-5.78081611 22.57367715 -5.77856253 19.48819982 -5.77880859 16.40237427 C-5.77389355 14.45510603 -5.76806529 12.50783984 -5.76123047 10.56057739 C-5.76011765 9.63144028 -5.75900482 8.70230316 -5.75785828 7.74501038 C-5.75147842 6.89064896 -5.74509857 6.03628754 -5.73852539 5.15603638 C-5.73471359 4.40039902 -5.73090179 3.64476166 -5.72697449 2.8662262 C-5.44929301 -0.74566098 -3.06711324 0.00133231 0 0 Z M-34.59326172 125.12698364 C-35.23183105 125.54818481 -35.87040039 125.96938599 -36.52832031 126.40335083 C-46.7177917 133.1868905 -55.85873718 140.56324589 -64.59326172 149.12698364 C-65.35123047 149.84628052 -66.10919922 150.56557739 -66.89013672 151.30667114 C-76.31600158 160.40372676 -83.61015817 171.11200073 -90.59326172 182.12698364 C-91.07633789 182.8837439 -91.55941406 183.64050415 -92.05712891 184.42019653 C-95.87769967 190.57155958 -98.89612977 196.84890025 -101.59326172 203.56448364 C-102.0211499 204.62981323 -102.44903809 205.69514282 -102.88989258 206.79275513 C-116.61396429 242.42559602 -118.64144244 284.98278119 -105.59326172 321.12698364 C-105.31885254 321.89929321 -105.04444336 322.67160278 -104.76171875 323.46731567 C-98.09349135 341.92381905 -89.25659986 359.07902134 -76.59326172 374.12698364 C-75.6357265 375.29844689 -74.67871343 376.47033709 -73.72216797 377.64260864 C-54.04986116 401.46867466 -26.58424764 420.85360822 3.40673828 429.12698364 C4.07576172 429.34096802 4.74478516 429.55495239 5.43408203 429.77542114 C21.19939912 434.7879835 35.97093258 436.8469186 52.46923828 436.68948364 C53.87598816 436.68409073 53.87598816 436.68409073 55.31115723 436.67858887 C70.49441456 436.59544292 84.75719969 435.40417824 99.40673828 431.12698364 C100.17308594 430.90816528 100.93943359 430.68934692 101.72900391 430.46389771 C109.19691082 428.27938531 116.41089562 425.53125983 123.40673828 422.12698364 C124.58623047 421.57397583 125.76572266 421.02096802 126.98095703 420.45120239 C140.55949375 413.97625973 152.99552138 405.95627172 164.40673828 396.12698364 C165.39931641 395.28006958 166.39189453 394.43315552 167.41455078 393.56057739 C179.61927798 382.87493339 190.34401017 370.2229202 198.40673828 356.12698364 C198.78781738 355.48180786 199.16889648 354.83663208 199.56152344 354.17190552 C208.96655208 338.23068908 215.04467401 322.08772369 219.40673828 304.12698364 C219.57334961 303.47197876 219.73996094 302.81697388 219.91162109 302.14212036 C225.52918488 279.21245781 225.80876236 247.02089778 217.07348633 224.88845825 C216.30768086 222.86528488 215.84366224 220.88073107 215.46923828 218.75198364 C214.58905658 214.53144026 213.18952865 210.72211972 211.51220703 206.75588989 C210.78657556 205.03027158 210.10001386 203.28759376 209.45751953 201.52932739 C195.35783957 164.26214356 163.84061 135.4589135 129.40673828 117.12698364 C128.28912109 116.53143677 127.17150391 115.93588989 126.02001953 115.32229614 C110.55156342 107.67719491 93.30347953 104.05432222 76.40673828 101.12698364 C74.81152344 100.83501099 74.81152344 100.83501099 73.18408203 100.53713989 C36.25030587 96.52675055 -3.39401384 104.48934886 -34.59326172 125.12698364 Z " fill="#5FC160" transform="translate(167.59326171875,6.873016357421875)"/>
<path d="M0 0 C2.5390625 0.375 2.5390625 0.375 4.71484375 2.76171875 C5.41996094 3.85097656 6.12507813 4.94023437 6.8515625 6.0625 C7.42632324 6.93793457 7.42632324 6.93793457 8.01269531 7.83105469 C9.20863136 9.66679191 10.3763446 11.51807832 11.5390625 13.375 C11.90499512 13.95137207 12.27092773 14.52774414 12.64794922 15.12158203 C15.00460246 18.83804881 17.28966211 22.59282235 19.5390625 26.375 C20.19648437 27.47328125 20.19648437 27.47328125 20.8671875 28.59375 C30.78338934 45.78183318 37.42095181 64.0005329 41.5390625 83.375 C41.886731 84.68923624 42.24013511 86.00198082 42.6015625 87.3125 C52.05214017 124.87854626 47.37089247 167.47868081 33.38427734 203.17919922 C32.63427005 205.12765836 31.93627127 207.09595986 31.24609375 209.06640625 C24.64102668 227.25574481 13.60773049 244.31934786 1.5390625 259.375 C1.10029785 259.92655762 0.6615332 260.47811523 0.20947266 261.04638672 C-20.4518588 286.80332564 -46.66522601 306.3594774 -76.4609375 320.375 C-77.51023437 320.87644531 -78.55953125 321.37789063 -79.640625 321.89453125 C-97.74342023 330.12110126 -116.86183282 334.52401571 -136.4609375 337.375 C-137.54375 337.5500708 -138.6265625 337.7251416 -139.7421875 337.90551758 C-143.809772 338.41903944 -147.77275538 338.57163056 -151.8671875 338.61328125 C-152.66108383 338.62298447 -153.45498016 338.63268768 -154.27293396 338.64268494 C-156.83565361 338.66756056 -159.39810922 338.68020778 -161.9609375 338.6875 C-162.83509308 338.69011841 -163.70924866 338.69273682 -164.6098938 338.69543457 C-178.59779083 338.69992491 -191.82767103 337.69219271 -205.4609375 334.375 C-206.24484863 334.19356445 -207.02875977 334.01212891 -207.83642578 333.82519531 C-212.40487116 332.76760454 -216.9394274 331.62050857 -221.4609375 330.375 C-222.63527344 330.05273438 -223.80960937 329.73046875 -225.01953125 329.3984375 C-230.63346893 327.72891233 -236.02609475 325.5489371 -241.4609375 323.375 C-242.57984375 322.9315625 -243.69875 322.488125 -244.8515625 322.03125 C-269.74780654 311.79991683 -291.11444839 295.86757511 -310.4609375 277.375 C-311.47607422 276.42173828 -311.47607422 276.42173828 -312.51171875 275.44921875 C-317.64575416 270.50402142 -322.05964227 264.97050332 -326.4609375 259.375 C-327.23695313 258.40433594 -328.01296875 257.43367188 -328.8125 256.43359375 C-329.54210937 255.48613281 -330.27171875 254.53867187 -331.0234375 253.5625 C-331.68472656 252.71042969 -332.34601563 251.85835937 -333.02734375 250.98046875 C-334.8517305 247.66475769 -335.06822959 246.123773 -334.4609375 242.375 C-333.09125226 239.37259244 -331.37162419 236.64561701 -329.5859375 233.875 C-329.09504639 233.0927002 -328.60415527 232.31040039 -328.09838867 231.50439453 C-323.50223829 224.25862934 -318.56883491 217.26678349 -313.4609375 210.375 C-311.1640625 210.54296875 -311.1640625 210.54296875 -308.4609375 211.375 C-306.7578125 213.67578125 -306.7578125 213.67578125 -305.2109375 216.6875 C-287.16404115 249.56001872 -253.16473547 277.68498579 -217.0859375 288.375 C-215.8896875 288.705 -214.6934375 289.035 -213.4609375 289.375 C-212.79191406 289.58898437 -212.12289062 289.80296875 -211.43359375 290.0234375 C-195.66827666 295.03599986 -180.8967432 297.09493496 -164.3984375 296.9375 C-162.99168762 296.93210709 -162.99168762 296.93210709 -161.55651855 296.92660522 C-146.37326122 296.84345928 -132.11047609 295.6521946 -117.4609375 291.375 C-116.69458984 291.15618164 -115.92824219 290.93736328 -115.13867188 290.71191406 C-107.67076496 288.52740167 -100.45678016 285.77927619 -93.4609375 282.375 C-92.28144531 281.82199219 -91.10195313 281.26898438 -89.88671875 280.69921875 C-76.30887354 274.22460584 -63.87050263 266.20532517 -52.4609375 256.375 C-51.97447754 255.96088867 -51.48801758 255.54677734 -50.98681641 255.12011719 C-38.43542559 244.34615644 -27.73869395 231.72187385 -19.4609375 217.375 C-19.0784082 216.72837402 -18.69587891 216.08174805 -18.30175781 215.41552734 C-8.8992431 199.47606063 -2.82232393 183.33294906 1.5390625 165.375 C1.70567383 164.71999512 1.87228516 164.06499023 2.04394531 163.39013672 C7.6615091 140.46047416 7.94108658 108.26891414 -0.79418945 86.13647461 C-1.55999492 84.11330124 -2.02401354 82.12874743 -2.3984375 80 C-3.2786192 75.77945662 -4.67814713 71.97013608 -6.35546875 68.00390625 C-7.08110022 66.27828794 -7.76766192 64.53561012 -8.41015625 62.77734375 C-14.74423956 46.03558453 -25.7319364 27.95150969 -39.13061523 15.86938477 C-40.4609375 14.375 -40.4609375 14.375 -40.4609375 11.375 C-37.33730116 10.26695025 -34.2117816 9.16430462 -31.0859375 8.0625 C-30.21582031 7.75376953 -29.34570312 7.44503906 -28.44921875 7.12695312 C-18.86793576 3.75576096 -9.98712514 1.52184764 0 0 Z " fill="#28AD29" transform="translate(384.4609375,145.625)"/>
<path d="M0 0 C6.95149153 6.23282229 12.09211382 14.13612119 17 22 C17.56533447 22.90057129 17.56533447 22.90057129 18.14208984 23.81933594 C23.03248748 31.64478015 27.48124103 39.44778449 31 48 C31.73863281 49.75957031 31.73863281 49.75957031 32.4921875 51.5546875 C37.20744499 62.93654617 41.0166551 74.13807258 42.60546875 86.41796875 C42.86160448 88.97902832 42.86160448 88.97902832 44 91 C45.03814708 97.13770909 45.17126045 103.33691245 45.203125 109.546875 C45.20882507 110.43876526 45.21452515 111.33065552 45.22039795 112.24957275 C45.22979074 114.13202757 45.23635898 116.0144984 45.24023438 117.89697266 C45.24983283 120.70116083 45.2808665 123.50458027 45.3125 126.30859375 C45.40778024 142.49360243 44.75223633 159.02839584 38.23828125 174.0546875 C36.98016854 177.0471701 36.10854056 179.99661934 35.25 183.125 C30.9195992 197.50749583 23.54411721 210.72642913 15 223 C14.33097656 223.96292969 13.66195313 224.92585937 12.97265625 225.91796875 C11.02701488 228.64957218 9.0330236 231.33289497 7 234 C6.34902344 234.85722656 5.69804687 235.71445312 5.02734375 236.59765625 C-21.25189495 269.95018536 -59.38967816 292.11047966 -100.73095703 300.52978516 C-102.83668826 300.96615683 -104.93077556 301.43994914 -107.02734375 301.91796875 C-129.50629678 306.68680725 -158.20637725 306.58442837 -180 299 C-182.40704374 298.49067256 -184.81693497 298.07236914 -187.2421875 297.66015625 C-190.96658217 296.76862268 -194.44058052 295.39976704 -198 294 C-198.97018066 293.62645386 -198.97018066 293.62645386 -199.95996094 293.24536133 C-221.27890382 284.97877777 -239.77674476 274.05624016 -257 259 C-258.18142578 258.00419922 -258.18142578 258.00419922 -259.38671875 256.98828125 C-263.11398069 253.82898304 -266.40902909 250.57793979 -269.48046875 246.7734375 C-271.07779287 244.85769388 -271.07779287 244.85769388 -273.33984375 242.703125 C-280.62585241 235.2994275 -292.88234479 222.81156869 -294.36328125 212.4609375 C-293.91871275 209.44934445 -292.91001211 208.03522321 -291 205.6875 C-290.1646875 204.64142578 -290.1646875 204.64142578 -289.3125 203.57421875 C-288.879375 203.05472656 -288.44625 202.53523437 -288 202 C-285.703125 202.16796875 -285.703125 202.16796875 -283 203 C-281.296875 205.30078125 -281.296875 205.30078125 -279.75 208.3125 C-261.70310365 241.18501872 -227.70379797 269.30998579 -191.625 280 C-190.42875 280.33 -189.2325 280.66 -188 281 C-187.33097656 281.21398437 -186.66195312 281.42796875 -185.97265625 281.6484375 C-170.20733916 286.66099986 -155.4358057 288.71993496 -138.9375 288.5625 C-137.53075012 288.55710709 -137.53075012 288.55710709 -136.09558105 288.55160522 C-120.91232372 288.46845928 -106.64953859 287.2771946 -92 283 C-91.23365234 282.78118164 -90.46730469 282.56236328 -89.67773438 282.33691406 C-82.20982746 280.15240167 -74.99584266 277.40427619 -68 274 C-66.82050781 273.44699219 -65.64101563 272.89398438 -64.42578125 272.32421875 C-50.84793604 265.84960584 -38.40956513 257.83032517 -27 248 C-26.51354004 247.58588867 -26.02708008 247.17177734 -25.52587891 246.74511719 C-12.97448809 235.97115644 -2.27775645 223.34687385 6 209 C6.3825293 208.35337402 6.76505859 207.70674805 7.15917969 207.04052734 C16.5616944 191.10106063 22.63861357 174.95794906 27 157 C27.16661133 156.34499512 27.33322266 155.68999023 27.50488281 155.01513672 C33.1224466 132.08547416 33.40202408 99.89391414 24.66674805 77.76147461 C23.90094258 75.73830124 23.43692396 73.75374743 23.0625 71.625 C22.1823183 67.40445662 20.78279037 63.59513608 19.10546875 59.62890625 C18.37983728 57.90328794 17.69327558 56.16061012 17.05078125 54.40234375 C10.71669794 37.66058453 -0.2709989 19.57650969 -13.66967773 7.49438477 C-15 6 -15 6 -15 3 C-13.25531628 2.29911844 -11.50398839 1.61475991 -9.75 0.9375 C-8.77546875 0.55464844 -7.8009375 0.17179688 -6.796875 -0.22265625 C-3.84825432 -1.04217513 -2.74055074 -1.28042125 0 0 Z " fill="#1C6B1C" transform="translate(359,154)"/>
<path d="M0 0 C-2.79026316 3.16568039 -6.29784383 5.23781033 -9.8125 7.5 C-20.495689 14.50730891 -30.42986454 22.31451076 -39.80078125 31.00390625 C-41.84334862 32.85781731 -43.95590558 34.5484948 -46.125 36.25 C-49.10029646 38.65462933 -49.10029646 38.65462933 -49.75 41.375 C-48.78699071 44.74553251 -47.05466668 47.2178681 -44.99609375 50.03515625 C-44 52 -44 52 -44.203125 54.12890625 C-45.43616502 57.02413257 -47.16183042 57.81192901 -50 59 C-52.0625 58.625 -52.0625 58.625 -54 57 C-55.4545134 54.72499186 -56.70549954 52.37325085 -58 50 C-58.66 49.67 -59.32 49.34 -60 49 C-60.37898438 49.85851562 -60.37898438 49.85851562 -60.765625 50.734375 C-62.1531274 53.28105662 -63.77838161 55.12554297 -65.75 57.25 C-72.08559159 64.08180582 -72.08559159 64.08180582 -76.9140625 71.98046875 C-78 74 -78 74 -79.83984375 75.8203125 C-82.55047422 78.55545138 -84.52237641 81.63419659 -86.5625 84.875 C-86.94857422 85.47441406 -87.33464844 86.07382813 -87.73242188 86.69140625 C-90.06686044 90.35810532 -92.12062612 94.07312934 -94 98 C-93.34 98 -92.68 98 -92 98 C-92.64991143 101.50952175 -93.88082237 104.12397322 -96 107 C-96.77730469 107.22300781 -97.55460937 107.44601563 -98.35546875 107.67578125 C-102.21770776 109.60975322 -103.34657488 112.79709318 -105.0625 116.5625 C-105.38798828 117.24119141 -105.71347656 117.91988281 -106.04882812 118.61914062 C-107.05634704 120.73592788 -108.03266832 122.86456969 -109 125 C-109.32709961 125.71897461 -109.65419922 126.43794922 -109.99121094 127.17871094 C-112.50834987 132.77262694 -114.84551326 138.43061678 -117.125 144.125 C-117.64513672 145.40697266 -117.64513672 145.40697266 -118.17578125 146.71484375 C-120.06593077 151.42935462 -121.70846889 156.08685589 -123 161 C-122.21753906 160.98839844 -121.43507813 160.97679687 -120.62890625 160.96484375 C-119.61699219 160.95582031 -118.60507813 160.94679688 -117.5625 160.9375 C-116.55316406 160.92589844 -115.54382813 160.91429687 -114.50390625 160.90234375 C-112 161 -112 161 -111 162 C-110.9020943 163.49738124 -110.87025136 164.99942892 -110.875 166.5 C-110.87113281 167.72203125 -110.87113281 167.72203125 -110.8671875 168.96875 C-111 171 -111 171 -112 172 C-114.69654854 172.07319621 -117.36691458 172.09242537 -120.0625 172.0625 C-120.82111328 172.05798828 -121.57972656 172.05347656 -122.36132812 172.04882812 C-124.24091871 172.0370068 -126.12046899 172.01907078 -128 172 C-128.10699219 172.93585938 -128.21398437 173.87171875 -128.32421875 174.8359375 C-129.04575164 179.87782234 -130.46861324 184.72028871 -131.8125 189.625 C-133.92476444 197.51786414 -135.80128385 205.40704324 -137.3125 213.4375 C-137.47145752 214.28199707 -137.63041504 215.12649414 -137.79418945 215.99658203 C-138.70294099 220.98347477 -139.41612988 225.96484284 -140 231 C-142.09025065 227.86462402 -143.17835014 225.04601706 -144.4375 221.5 C-145.05431641 219.78296875 -145.05431641 219.78296875 -145.68359375 218.03125 C-155.36842517 189.19880002 -155.61098414 157.49058273 -149 128 C-148.85578613 127.31228516 -148.71157227 126.62457031 -148.56298828 125.91601562 C-143.77003427 103.304892 -132.8096323 81.670584 -118 64 C-117.3503125 63.16855469 -116.700625 62.33710938 -116.03125 61.48046875 C-90.50909513 29.16165307 -52.16713324 6.94153255 -11.44921875 0.26953125 C-7.60548535 -0.15346333 -3.86321697 -0.12666285 0 0 Z " fill="#CFCFCF" transform="translate(207,108)"/>
<path d="M0 0 C2.14981187 0.00534537 4.2994133 0.00003013 6.44921875 -0.00634766 C19.04760162 -0.01494032 31.24936728 0.69233827 43.59765625 3.31787109 C44.63156494 3.53564209 45.66547363 3.75341309 46.73071289 3.9777832 C55.4595297 5.9002537 63.58275256 8.61505523 71.78515625 12.13037109 C72.58050781 12.45650391 73.37585938 12.78263672 74.1953125 13.11865234 C76.42388949 14.06423548 78.60116265 15.0857 80.78515625 16.13037109 C81.92855469 16.65888672 83.07195312 17.18740234 84.25 17.73193359 C100.11802118 25.22904493 114.17248669 34.98355964 127.1940918 46.71240234 C129.51304076 48.77906731 131.88127592 50.78666466 134.25 52.79589844 C136.19171754 54.48378458 137.99982931 56.27892093 139.78515625 58.13037109 C140.44515625 58.79037109 141.10515625 59.45037109 141.78515625 60.13037109 C139.66123119 60.80045449 137.53598101 61.46633906 135.41015625 62.13037109 C134.22679687 62.50162109 133.0434375 62.87287109 131.82421875 63.25537109 C128.78515625 64.13037109 128.78515625 64.13037109 126.78515625 64.13037109 C126.45515625 64.79037109 126.12515625 65.45037109 125.78515625 66.13037109 C124.99818359 65.27378906 124.99818359 65.27378906 124.1953125 64.39990234 C111.32350693 50.92841198 96.16619356 40.85131974 79.78515625 32.13037109 C78.66753906 31.53482422 77.54992187 30.93927734 76.3984375 30.32568359 C60.92998139 22.68058237 43.6818975 19.05770967 26.78515625 16.13037109 C25.72167969 15.93572266 24.65820312 15.74107422 23.5625 15.54052734 C-13.37127616 11.530138 -53.01559587 19.49273631 -84.21484375 40.13037109 C-84.85341309 40.55157227 -85.49198242 40.97277344 -86.14990234 41.40673828 C-96.33852265 48.18971136 -105.47878146 55.56928001 -114.21484375 64.13037109 C-114.89933594 64.77619141 -115.58382812 65.42201172 -116.2890625 66.08740234 C-125.44012711 74.86831153 -132.45700492 85.47071544 -139.21484375 96.13037109 C-139.69791992 96.88713135 -140.18099609 97.6438916 -140.67871094 98.42358398 C-144.4992817 104.57494703 -147.5177118 110.8522877 -150.21484375 117.56787109 C-150.64273193 118.63320068 -151.07062012 119.69853027 -151.51147461 120.79614258 C-168.55045617 165.03573355 -165.02891462 212.28277732 -146.21484375 255.13037109 C-145.35246094 256.84160156 -145.35246094 256.84160156 -144.47265625 258.58740234 C-143.21484375 261.13037109 -143.21484375 261.13037109 -143.21484375 263.13037109 C-144.10429687 263.48228516 -144.10429687 263.48228516 -145.01171875 263.84130859 C-147.72578375 265.42932535 -148.79977616 267.10639993 -150.46484375 269.75537109 C-150.985625 270.57263672 -151.50640625 271.38990234 -152.04296875 272.23193359 C-152.4296875 272.85841797 -152.81640625 273.48490234 -153.21484375 274.13037109 C-155.08049984 271.33188696 -156.53927591 268.57934348 -158.02734375 265.56787109 C-160.31665703 260.93805821 -160.31665703 260.93805821 -162.6484375 256.32958984 C-164.86796475 251.98932735 -166.84539976 247.82560764 -168.21484375 243.13037109 C-168.54935547 242.04175781 -168.54935547 242.04175781 -168.890625 240.93115234 C-169.68495463 238.33634221 -170.45098244 235.73431048 -171.21484375 233.13037109 C-171.46218262 232.30287354 -171.70952148 231.47537598 -171.96435547 230.62280273 C-185.40846728 183.87777624 -176.49918503 133.38766734 -154.21484375 91.13037109 C-148.83467381 81.78265611 -142.27512628 73.26531609 -135.21484375 65.13037109 C-134.13783203 63.88707031 -134.13783203 63.88707031 -133.0390625 62.61865234 C-127.39496053 56.23269683 -121.55737975 49.83323252 -115.21484375 44.13037109 C-114.55484375 44.13037109 -113.89484375 44.13037109 -113.21484375 44.13037109 C-113.21484375 43.47037109 -113.21484375 42.81037109 -113.21484375 42.13037109 C-111.76879883 40.83691406 -111.76879883 40.83691406 -109.734375 39.37255859 C-108.61603271 38.56347046 -108.61603271 38.56347046 -107.47509766 37.73803711 C-106.26345947 36.88036743 -106.26345947 36.88036743 -105.02734375 36.00537109 C-104.20669434 35.42005615 -103.38604492 34.83474121 -102.54052734 34.23168945 C-89.25152204 24.83237056 -75.4961108 16.84678027 -60.21484375 11.13037109 C-59.22613281 10.74107422 -58.23742187 10.35177734 -57.21875 9.95068359 C-50.08879543 7.24650765 -42.93257352 5.17762936 -35.52734375 3.38037109 C-34.24573364 3.06434937 -34.24573364 3.06434937 -32.93823242 2.74194336 C-22.02277389 0.18855244 -11.15820053 -0.03290758 0 0 Z " fill="#548F54" transform="translate(217.21484375,92.86962890625)"/>
<path d="M0 0 C1.48919952 -0.00422974 1.48919952 -0.00422974 3.00848389 -0.00854492 C4.10670471 -0.00652069 5.20492554 -0.00449646 6.33642578 -0.00241089 C8.06061737 -0.00503937 8.06061737 -0.00503937 9.81964111 -0.00772095 C13.64035528 -0.01214226 17.4610236 -0.00920048 21.28173828 -0.00582886 C23.9235027 -0.00650182 26.56526705 -0.00747177 29.20703125 -0.00872803 C34.75212099 -0.01054957 40.29719743 -0.00814383 45.84228516 -0.00338745 C52.26168572 0.00205514 58.68105453 0.00029247 65.10045433 -0.00521386 C71.26474811 -0.01029062 77.42902776 -0.00976347 83.59332275 -0.00683212 C86.22170008 -0.00616257 88.8500782 -0.00699224 91.47845459 -0.00931168 C95.14467551 -0.01183655 98.8108345 -0.00799993 102.47705078 -0.00241089 C103.57527161 -0.00443512 104.67349243 -0.00645935 105.80499268 -0.00854492 C106.79779236 -0.0057251 107.79059204 -0.00290527 108.81347656 0 C109.68142853 0.00037703 110.54938049 0.00075405 111.44363403 0.0011425 C113.40673828 0.12698364 113.40673828 0.12698364 114.40673828 1.12698364 C114.50975242 2.4669198 114.54522281 3.81216329 114.55200195 5.15603638 C114.55838181 6.0103978 114.56476166 6.86475922 114.57133484 7.74501038 C114.57244766 8.67414749 114.57356049 9.60328461 114.57470703 10.56057739 C114.57969963 11.98298485 114.57969963 11.98298485 114.58479309 13.43412781 C114.58986647 15.44412754 114.59220129 17.45413572 114.59204102 19.46414185 C114.5942265 22.54785984 114.61237511 25.63121971 114.63134766 28.71487427 C114.63428163 30.66344075 114.6362664 32.61200893 114.63720703 34.56057739 C114.64439255 35.48769028 114.65157806 36.41480316 114.65898132 37.37001038 C114.65590469 38.22752396 114.65282806 39.08503754 114.6496582 39.96853638 C114.65108322 40.72496933 114.65250824 41.48140228 114.65397644 42.26075745 C114.40673828 44.12698364 114.40673828 44.12698364 112.40673828 46.12698364 C109.42578125 46.35403442 109.42578125 46.35403442 105.64892578 46.32229614 C104.98587433 46.31946625 104.32282288 46.31663635 103.63967896 46.3137207 C101.52018245 46.30251799 99.40110724 46.27741415 97.28173828 46.25198364 C95.84554646 46.24195392 94.40934803 46.23282805 92.97314453 46.22463989 C89.4507159 46.20427903 85.92919911 46.16513304 82.40673828 46.12698364 C82.40673828 51.07698364 82.40673828 56.02698364 82.40673828 61.12698364 C64.25673828 61.12698364 46.10673828 61.12698364 27.40673828 61.12698364 C27.40673828 56.17698364 27.40673828 51.22698364 27.40673828 46.12698364 C25.19212891 46.15018677 22.97751953 46.17338989 20.69580078 46.19729614 C18.55453057 46.21288679 16.41326665 46.22503484 14.27197266 46.23684692 C12.78203508 46.24691407 11.29211731 46.26056882 9.80224609 46.27786255 C7.662548 46.30208017 5.52311075 46.31345928 3.38330078 46.32229614 C2.09504395 46.33276978 0.80678711 46.34324341 -0.52050781 46.35403442 C-3.59326172 46.12698364 -3.59326172 46.12698364 -5.59326172 44.12698364 C-5.84049988 42.26075745 -5.84049988 42.26075745 -5.83618164 39.96853638 C-5.83925827 39.1110228 -5.8423349 38.25350922 -5.84550476 37.37001038 C-5.83831924 36.44289749 -5.83113373 35.51578461 -5.82373047 34.56057739 C-5.82327225 33.61134903 -5.82281403 32.66212067 -5.82234192 31.68412781 C-5.8193181 29.67589062 -5.81142796 27.6676558 -5.79907227 25.65945435 C-5.78081611 22.57367715 -5.77856253 19.48819982 -5.77880859 16.40237427 C-5.77389355 14.45510603 -5.76806529 12.50783984 -5.76123047 10.56057739 C-5.76011765 9.63144028 -5.75900482 8.70230316 -5.75785828 7.74501038 C-5.75147842 6.89064896 -5.74509857 6.03628754 -5.73852539 5.15603638 C-5.73471359 4.40039902 -5.73090179 3.64476166 -5.72697449 2.8662262 C-5.44929301 -0.74566098 -3.06711324 0.00133231 0 0 Z " fill="#2E902E" transform="translate(167.59326171875,6.873016357421875)"/>
<path d="M0 0 C2.33944736 0.28730055 4.6739143 0.61936779 7 1 C6.64402381 7.16036572 3.61891808 11.1271269 0.25 16.0625 C-0.94221308 17.85015783 -2.13225142 19.6392676 -3.3203125 21.4296875 C-3.93165039 22.3484668 -4.54298828 23.26724609 -5.17285156 24.21386719 C-8.08148588 28.64910701 -10.85362133 33.165689 -13.625 37.6875 C-21.16791944 49.95254809 -28.94208153 62.06612075 -37 74 C-35.91071564 76.23515491 -34.80739255 78.29276333 -33.4375 80.375 C-30.0180844 86.61915022 -30.03257528 95.08169381 -31 102 C-34.14251664 109.20119018 -39.82506568 114.80592122 -47 118 C-48.66184278 118.20936602 -50.32963968 118.37569412 -52 118.5 C-55.70581313 119.08332244 -56.79583171 119.7615706 -59.28125 122.6640625 C-61.28502272 125.64889007 -63.05418916 128.7618105 -64.80419922 131.90039062 C-66.93160942 135.63573724 -69.26393585 139.2434972 -71.5625 142.875 C-72.41924306 144.24660068 -73.27482602 145.61892712 -74.12890625 146.9921875 C-75.05509766 148.48105469 -75.05509766 148.48105469 -76 150 C-81.50802198 149.54965858 -84.80535388 148.22952898 -89.3125 145.0625 C-90.85357422 143.99708984 -90.85357422 143.99708984 -92.42578125 142.91015625 C-95 141 -95 141 -97 139 C-96.80227729 134.06591958 -93.97186467 130.33054148 -91.375 126.3125 C-90.92858154 125.60496582 -90.48216309 124.89743164 -90.0222168 124.16845703 C-86.94336997 119.32861356 -83.66662278 114.69369982 -80.08203125 110.2109375 C-78.58519484 107.15241979 -79.16276407 105.23376841 -80 102 C-80.495 101.01 -80.495 101.01 -81 100 C-81.79111277 91.09998133 -80.86851333 83.20077157 -75.125 76.125 C-71.61935883 72.3763936 -68.08566838 69.96391566 -63 69 C-60.96044922 69.14038086 -60.96044922 69.14038086 -58.8046875 69.46484375 C-50.17099167 70.62802523 -50.17099167 70.62802523 -42.32958984 67.74023438 C-39.21301911 64.05811684 -37.23306843 59.70906554 -35.18212891 55.37353516 C-33.17776758 51.34908228 -30.69587854 47.64133582 -28.25 43.875 C-27.23903228 42.27981878 -26.22995966 40.68343514 -25.22265625 39.0859375 C-20.06111764 30.93445393 -14.87989295 22.79544345 -9.69287109 14.66015625 C-8.47930726 12.75317738 -7.2690793 10.84407404 -6.06103516 8.93359375 C-5.42858887 7.93457031 -4.79614258 6.93554688 -4.14453125 5.90625 C-3.56678955 4.99166016 -2.98904785 4.07707031 -2.39379883 3.13476562 C-1 1 -1 1 0 0 Z " fill="#747474" transform="translate(283,185)"/>
<path d="M0 0 C4.01890913 1.80911619 5.96074852 4.94124237 8.4609375 8.4765625 C8.97140625 9.15396484 9.481875 9.83136719 10.0078125 10.52929688 C13.65306457 15.56861156 13.65306457 15.56861156 13.34838867 18.27124023 C12.23365002 21.03863338 10.40530471 22.16959637 8.0234375 23.9140625 C7.19714844 24.52765625 6.37085937 25.14125 5.51953125 25.7734375 C4.88144531 26.23234375 4.24335937 26.69125 3.5859375 27.1640625 C4.79605433 29.74308977 5.89403931 31.52498176 7.7734375 33.7265625 C8.3715625 34.5309375 8.9696875 35.3353125 9.5859375 36.1640625 C8.33839659 39.90668523 7.07134838 40.4274786 3.8359375 42.6015625 C-0.79860274 45.87229272 -5.01405874 49.36141606 -9.1640625 53.2265625 C-9.71602295 53.73977051 -10.2679834 54.25297852 -10.83666992 54.78173828 C-13.82409475 57.58956653 -16.6772725 60.479464 -19.4765625 63.4765625 C-22.4140625 66.1640625 -22.4140625 66.1640625 -24.36328125 66.0859375 C-27.01974312 64.89179464 -28.31654478 63.33990128 -30.1640625 61.1015625 C-31.08445312 60.00134766 -31.08445312 60.00134766 -32.0234375 58.87890625 C-32.48234375 58.31300781 -32.94125 57.74710938 -33.4140625 57.1640625 C-35.96490134 58.38188234 -38.03728702 59.61490577 -40.3515625 61.2890625 C-43.67647743 63.3247247 -44.64927379 63.91812106 -48.4140625 63.1640625 C-50.69215595 61.1924338 -52.42688405 58.88174024 -54.2265625 56.4765625 C-54.72865234 55.85072266 -55.23074219 55.22488281 -55.74804688 54.58007812 C-59.30365858 49.96020169 -59.30365858 49.96020169 -59.7644043 46.63769531 C-59.4140625 44.1640625 -59.4140625 44.1640625 -58.015625 42.50170898 C-57.03722656 41.77576538 -57.03722656 41.77576538 -56.0390625 41.03515625 C-55.30905029 40.48118164 -54.57903809 39.92720703 -53.8269043 39.35644531 C-53.0306665 38.77733398 -52.23442871 38.19822266 -51.4140625 37.6015625 C-50.60042236 36.99022461 -49.78678223 36.37888672 -48.94848633 35.74902344 C-46.44708761 33.87339935 -43.93111446 32.01860128 -41.4140625 30.1640625 C-39.97896562 29.08924364 -38.54528155 28.01253479 -37.11328125 26.93359375 C-34.46915664 24.94206837 -31.82083992 22.95642117 -29.16796875 20.9765625 C-25.6060116 18.31355371 -22.0662585 15.62290298 -18.5390625 12.9140625 C-17.50007813 12.11871094 -16.46109375 11.32335937 -15.390625 10.50390625 C-13.41642349 8.95200769 -11.47261007 7.36060379 -9.5625 5.73046875 C-8.68851563 4.98667969 -7.81453125 4.24289063 -6.9140625 3.4765625 C-6.16125 2.81269531 -5.4084375 2.14882812 -4.6328125 1.46484375 C-2.4140625 0.1640625 -2.4140625 0.1640625 0 0 Z " fill="#31A131" transform="translate(92.4140625,66.8359375)"/>
<path d="M0 0 C17.82 0 35.64 0 54 0 C54 4.95 54 9.9 54 15 C36.18 15 18.36 15 0 15 C0 10.05 0 5.1 0 0 Z " fill="#1E651E" transform="translate(195,53)"/>
<path d="M0 0 C3.4375 1.6875 3.4375 1.6875 6 4 C6.78375 4.70125 7.5675 5.4025 8.375 6.125 C10.79861869 10.41294077 10.72163761 14.18908261 10 19 C8.61663447 23.56510626 6.33433666 26.12654442 2.1875 28.4375 C-1.67950515 30.09478792 -4.77682634 30.62565536 -9 30 C-13.46407548 27.67868075 -17.74998169 24.6139616 -20 20 C-20.93555623 15.34332161 -21.15045193 11.0204812 -18.75 6.8046875 C-13.26445685 0.24946344 -8.39145272 -0.97379322 0 0 Z " fill="#E1E1E1" transform="translate(232,264)"/>
<path d="M0 0 C3.67296329 1.6416549 4.98774421 3.68280399 7.24609375 7.00390625 C5.99855284 10.74652898 4.73150463 11.26732235 1.49609375 13.44140625 C-3.13844649 16.71213647 -7.35390249 20.20125981 -11.50390625 24.06640625 C-12.0558667 24.57961426 -12.60782715 25.09282227 -13.17651367 25.62158203 C-16.1639385 28.42941028 -19.01711625 31.31930775 -21.81640625 34.31640625 C-22.78578125 35.20328125 -23.75515625 36.09015625 -24.75390625 37.00390625 C-27.33008748 36.83589443 -28.51387721 36.20455974 -30.4921875 34.55078125 C-31.01167969 33.9578125 -31.53117187 33.36484375 -32.06640625 32.75390625 C-32.59878906 32.17125 -33.13117187 31.58859375 -33.6796875 30.98828125 C-34.75390625 29.00390625 -34.75390625 29.00390625 -34.69921875 26.5078125 C-33.50052051 23.33274814 -32.03512546 22.18803364 -29.31640625 20.19140625 C-28.51332031 19.58683594 -27.71023437 18.98226562 -26.8828125 18.359375 C-24.75390625 17.00390625 -24.75390625 17.00390625 -22.75390625 17.00390625 C-22.75390625 16.34390625 -22.75390625 15.68390625 -22.75390625 15.00390625 C-21.36086979 14.04473153 -19.96112296 13.09405763 -18.53173828 12.18994141 C-16.67524554 10.95142977 -14.99154935 9.60469921 -13.28125 8.171875 C-12.69150391 7.68396484 -12.10175781 7.19605469 -11.49414062 6.69335938 C-10.28036879 5.68210202 -9.07472356 4.66101931 -7.87695312 3.63085938 C-3.44520889 0.00488682 -3.44520889 0.00488682 0 0 Z " fill="#257825" transform="translate(94.75390625,95.99609375)"/>
<path d="M0 0 C3.63 0 7.26 0 11 0 C11 9.57 11 19.14 11 29 C7.37 29 3.74 29 0 29 C0 19.43 0 9.86 0 0 Z " fill="#9E9E9E" transform="translate(216,402)"/>
<path d="M0 0 C9.9 0 19.8 0 30 0 C30 3.3 30 6.6 30 10 C20.1 10 10.2 10 0 10 C0 6.7 0 3.4 0 0 Z " fill="#9B9B9B" transform="translate(348,271)"/>
<path d="M0 0 C2.17708323 3.76491091 4.33985035 7.5378518 6.5 11.3125 C7.12003906 12.38435547 7.74007813 13.45621094 8.37890625 14.56054688 C8.96542969 15.58857422 9.55195313 16.61660156 10.15625 17.67578125 C10.70087891 18.62364502 11.24550781 19.57150879 11.80664062 20.5480957 C13 23 13 23 13 26 C7.64867204 29.04052725 7.64867204 29.04052725 4.98754883 28.87426758 C2.20347543 27.64963094 1.45534035 26.06896054 -0.05078125 23.44921875 C-0.58380859 22.52302734 -1.11683594 21.59683594 -1.66601562 20.64257812 C-2.20935547 19.66740234 -2.75269531 18.69222656 -3.3125 17.6875 C-3.87517578 16.72392578 -4.43785156 15.76035156 -5.01757812 14.76757812 C-9.05806876 7.63119135 -9.05806876 7.63119135 -8.79760742 4.80004883 C-7.14373007 1.067561 -3.84442046 0 0 0 Z " fill="#9B9B9B" transform="translate(290,383)"/>
<path d="M0 0 C2.45234885 0.98093954 3.7809268 1.68703828 5.3125 3.875 C6.15895782 6.49132418 6.03710472 7.46159411 5 10 C2.89868164 11.64746094 2.89868164 11.64746094 0.16015625 13.234375 C-1.3103418 14.09482422 -1.3103418 14.09482422 -2.81054688 14.97265625 C-3.84244141 15.55917969 -4.87433594 16.14570313 -5.9375 16.75 C-6.96552734 17.35199219 -7.99355469 17.95398438 -9.05273438 18.57421875 C-16.69498476 23 -16.69498476 23 -19 23 C-22.22265625 17.82421875 -22.22265625 17.82421875 -23 16 C-21.80177848 12.40533545 -21.05691445 12.1672019 -17.8515625 10.37109375 C-17.01109375 9.89349609 -16.170625 9.41589844 -15.3046875 8.92382812 C-14.42039062 8.43333984 -13.53609375 7.94285156 -12.625 7.4375 C-10.8876512 6.45768637 -9.15065724 5.47724323 -7.4140625 4.49609375 C-6.6401416 4.06482178 -5.8662207 3.6335498 -5.06884766 3.18920898 C-3.33816982 2.19438579 -1.66096058 1.10730705 0 0 Z " fill="#9B9B9B" transform="translate(353,194)"/>
<path d="M0 0 C4.30872286 1.43624095 5.54602565 2.54602565 9 6 C4.71 13.59 0.42 21.18 -4 29 C-10 28 -10 28 -13 26 C-12.42958737 22.20172297 -11.370449 19.60506168 -9.3125 16.375 C-5.987764 11.02966173 -2.97368403 5.54665887 0 0 Z " fill="#9A9A9A" transform="translate(153,382)"/>
<path d="M0 0 C2.7808913 1.23264347 3.54719281 3.12683927 4.82421875 5.80859375 C4.82421875 6.79859375 4.82421875 7.78859375 4.82421875 8.80859375 C1.06279401 11.01258485 -2.71130254 13.19388235 -6.48828125 15.37109375 C-7.56013672 15.99951172 -8.63199219 16.62792969 -9.73632812 17.27539062 C-10.76435547 17.86513672 -11.79238281 18.45488281 -12.8515625 19.0625 C-13.79942627 19.61236572 -14.74729004 20.16223145 -15.72387695 20.72875977 C-18.17578125 21.80859375 -18.17578125 21.80859375 -21.17578125 20.80859375 C-24.2306589 16.77179114 -24.2306589 16.77179114 -24.0625 13.8203125 C-22.78231543 10.915929 -21.05158635 10.33038197 -18.23828125 8.93359375 C-13.41606223 6.47853172 -8.8876147 3.78391755 -4.3671875 0.8125 C-2.17578125 -0.19140625 -2.17578125 -0.19140625 0 0 Z " fill="#9A9A9A" transform="translate(109.17578125,334.19140625)"/>
<path d="M0 0 C2.88483044 0.59969123 4.98021032 1.44802237 7.4375 3.0625 C11.26210715 5.52998848 15.12019929 7.93316305 19 10.3125 C20.1458813 11.01684906 21.29171836 11.72127009 22.4375 12.42578125 C23.283125 12.94527344 24.12875 13.46476562 25 14 C24.25561083 17.1385057 23.24162641 20.02009661 22 23 C18.59514327 22.33488123 16.00886944 21.01123535 13.015625 19.27734375 C12.08105469 18.73916016 11.14648438 18.20097656 10.18359375 17.64648438 C9.21550781 17.08251953 8.24742187 16.51855469 7.25 15.9375 C6.26644531 15.36966797 5.28289062 14.80183594 4.26953125 14.21679688 C1.84380374 12.8155271 -0.57922121 11.40979613 -3 10 C-3 5.66905042 -2.03435531 3.72965139 0 0 Z " fill="#9A9A9A" transform="translate(333,335)"/>
<path d="M0 0 C3.3 0 6.6 0 10 0 C10 9.57 10 19.14 10 29 C6.7 29 3.4 29 0 29 C0 19.43 0 9.86 0 0 Z " fill="#B2B2B2" transform="translate(218,120)"/>
<path d="M0 0 C3.0831351 1.19899698 6.06279492 2.47700477 9 4 C7.68071914 7.51716993 6.12651609 10.65308518 4.1796875 13.86328125 C3.64472656 14.74951172 3.10976563 15.63574219 2.55859375 16.54882812 C2.00300781 17.46083984 1.44742187 18.37285156 0.875 19.3125 C0.31167969 20.24384766 -0.25164062 21.17519531 -0.83203125 22.13476562 C-2.2180446 24.42521142 -3.60745628 26.71352076 -5 29 C-8.47153381 28.23596585 -10.99770818 26.91813089 -14 25 C-12.71563748 21.61636394 -11.25238128 18.51797586 -9.43359375 15.390625 C-8.94826172 14.55402344 -8.46292969 13.71742188 -7.96289062 12.85546875 C-7.45951172 11.99566406 -6.95613281 11.13585937 -6.4375 10.25 C-5.93025391 9.37472656 -5.42300781 8.49945313 -4.90039062 7.59765625 C-1.14223388 1.14223388 -1.14223388 1.14223388 0 0 Z " fill="#B3B3B3" transform="translate(296,139)"/>
<path d="M0 0 C2.38945973 3.24129493 4.26858073 6.81029515 6.25 10.3125 C6.8171875 11.27607422 7.384375 12.23964844 7.96875 13.23242188 C8.49984375 14.16248047 9.0309375 15.09253906 9.578125 16.05078125 C10.06700195 16.90325439 10.55587891 17.75572754 11.05957031 18.6340332 C12 21 12 21 11.79589844 23.19213867 C10.54511284 26.03326362 8.79812757 26.82869078 6 28 C2.1967834 26.78041895 0.89316763 24.67494285 -1.015625 21.28125 C-1.54414063 20.34925781 -2.07265625 19.41726562 -2.6171875 18.45703125 C-3.42542969 16.99330078 -3.42542969 16.99330078 -4.25 15.5 C-4.80429688 14.52417969 -5.35859375 13.54835937 -5.9296875 12.54296875 C-10 5.29460437 -10 5.29460437 -10 3 C-3.375 -1.125 -3.375 -1.125 0 0 Z " fill="#B2B2B2" transform="translate(151,139)"/>
<path d="M0 0 C3.87286867 1.43020013 7.27548481 3.25186375 10.8125 5.375 C15.46252092 8.12822623 20.13104259 10.65915509 25 13 C24.23596585 16.47153381 22.91813089 18.99770818 21 22 C15.14985897 20.40799441 10.29481514 17.44263127 5.125 14.375 C4.24585937 13.859375 3.36671875 13.34375 2.4609375 12.8125 C0.3042944 11.54664427 -1.84917988 10.27571593 -4 9 C-3.23596585 5.52846619 -1.91813089 3.00229182 0 0 Z " fill="#B1B1B1" transform="translate(90,193)"/>
<path d="M0 0 C9.57 0 19.14 0 29 0 C29 2.97 29 5.94 29 9 C19.43 9 9.86 9 0 9 C0 6.03 0 3.06 0 0 Z " fill="#B0B0B0" transform="translate(67,270)"/>
<path d="M0 0 C6.00852226 -0.20719042 10.52578585 0.26289292 16 3 C16 3.99 16 4.98 16 6 C14.26969709 5.71515154 12.54079286 5.42180062 10.8125 5.125 C9.84957031 4.96257812 8.88664062 4.80015625 7.89453125 4.6328125 C5.08967396 4.01960483 2.62775253 3.14333657 0 2 C0 1.34 0 0.68 0 0 Z " fill="#909090" transform="translate(350,310)"/>
<path d="M0 0 C0.99 0 1.98 0 3 0 C1.91103333 5.75762166 0.70663707 11.39247819 -1 17 C-1.99 16.67 -2.98 16.34 -4 16 C-2.98408579 10.53135543 -1.92908943 5.23609987 0 0 Z " fill="#A3A3A3" transform="translate(260,131)"/>
<path d="M0 0 C0.99 0 1.98 0 3 0 C3.67184618 2.10251861 4.33730968 4.20707763 5 6.3125 C5.37125 7.48425781 5.7425 8.65601563 6.125 9.86328125 C7 13 7 13 7 16 C6.01 16 5.02 16 4 16 C3.32815382 13.89748139 2.66269032 11.79292237 2 9.6875 C1.443125 7.92986328 1.443125 7.92986328 0.875 6.13671875 C0 3 0 3 0 0 Z " fill="#A5A5A5" transform="translate(183,131)"/>
<path d="M0 0 C0 0.99 0 1.98 0 3 C-1.72681437 3.50806447 -3.45657979 4.00610467 -5.1875 4.5 C-6.63189453 4.91765625 -6.63189453 4.91765625 -8.10546875 5.34375 C-10.85345876 5.96677608 -13.19598416 6.12302812 -16 6 C-16 5.01 -16 4.02 -16 3 C-14.27318563 2.49193553 -12.54342021 1.99389533 -10.8125 1.5 C-9.84957031 1.2215625 -8.88664062 0.943125 -7.89453125 0.65625 C-5.14654124 0.03322392 -2.80401584 -0.12302812 0 0 Z " fill="#A1A1A1" transform="translate(94,308)"/>
<path d="M0 0 C0 0.99 0 1.98 0 3 C-1.725227 3.67679658 -3.45538939 4.34102 -5.1875 5 C-6.15042969 5.37125 -7.11335938 5.7425 -8.10546875 6.125 C-10.92182358 6.97636772 -13.08164439 7.17072647 -16 7 C-16 6.01 -16 5.02 -16 4 C-13.70922959 3.33011414 -11.41748541 2.66396838 -9.125 2 C-8.47402344 1.80921875 -7.82304687 1.6184375 -7.15234375 1.421875 C-2.2265625 0 -2.2265625 0 0 0 Z " fill="#7B7B7B" transform="translate(366,236)"/>
<path d="M0 0 C0.66 0 1.32 0 2 0 C2.67679658 1.725227 3.34102 3.45538939 4 5.1875 C4.37125 6.15042969 4.7425 7.11335938 5.125 8.10546875 C5.97636772 10.92182358 6.17072647 13.08164439 6 16 C5.01 16 4.02 16 3 16 C2.49595192 13.89679937 1.99689492 11.79240209 1.5 9.6875 C1.08234375 7.92986328 1.08234375 7.92986328 0.65625 6.13671875 C0 3 0 3 0 0 Z " fill="#838383" transform="translate(255,404)"/>
<path d="M0 0 C0.99 0.33 1.98 0.66 3 1 C2.61328125 1.44730469 2.2265625 1.89460937 1.828125 2.35546875 C1.30734375 2.96003906 0.7865625 3.56460938 0.25 4.1875 C-0.29785156 4.82171875 -0.84570312 5.4559375 -1.41015625 6.109375 C-2.72528424 7.67331099 -3.96705018 9.29861024 -5.1875 10.9375 C-6.0846875 11.9584375 -6.0846875 11.9584375 -7 13 C-7.99 13 -8.98 13 -10 13 C-9.48223379 8.89552608 -7.35372556 7.04300477 -4.4375 4.25 C-3.61121094 3.45078125 -2.78492188 2.6515625 -1.93359375 1.828125 C-1.29550781 1.22484375 -0.65742188 0.6215625 0 0 Z " fill="#808080" transform="translate(326,170)"/>
<path d="M0 0 C3.68069887 1.53643852 5.98775204 3.78150945 8.75 6.625 C9.54921875 7.44226563 10.3484375 8.25953125 11.171875 9.1015625 C12.07679688 10.04128906 12.07679688 10.04128906 13 11 C12.67 11.66 12.34 12.32 12 13 C8.62801098 11.53424802 6.35012996 9.64818479 3.75 7.0625 C3.04359375 6.37285156 2.3371875 5.68320312 1.609375 4.97265625 C0 3 0 3 0 0 Z " fill="#7E7E7E" transform="translate(315,369)"/>
<path d="M0 0 C0.99 0.33 1.98 0.66 3 1 C-0.50074982 5.17443363 -3.97950843 9.3145494 -8 13 C-8.66 13 -9.32 13 -10 13 C-9.48223379 8.89552608 -7.35372556 7.04300477 -4.4375 4.25 C-3.61121094 3.45078125 -2.78492187 2.6515625 -1.93359375 1.828125 C-1.29550781 1.22484375 -0.65742187 0.6215625 0 0 Z " fill="#7E7E7E" transform="translate(126,368)"/>
<path d="M0 0 C5.86809507 0.52393706 10.54873741 1.76108858 16 4 C16 4.66 16 5.32 16 6 C10.49191603 5.40984815 5.35121931 4.43336231 0 3 C0 2.01 0 1.02 0 0 Z " fill="#9B9B9B" transform="translate(78,235)"/>
<path d="M0 0 C0.99 0 1.98 0 3 0 C2.39891424 5.65020618 0.92471317 10.66164461 -1 16 C-1.66 16 -2.32 16 -3 16 C-2.40984815 10.49191603 -1.43336231 5.35121931 0 0 Z " fill="#797979" transform="translate(185,403)"/>
<path d="M0 0 C3 0 3 0 5.4375 2.25 C6.283125 3.1575 7.12875 4.065 8 5 C8.763125 5.70125 9.52625 6.4025 10.3125 7.125 C12 9 12 9 12 12 C8.43217129 11.44397475 7.07770886 10.31393174 4.875 7.5 C2.80112319 4.8119616 2.80112319 4.8119616 0 3 C0 2.01 0 1.02 0 0 Z " fill="#9B9B9B" transform="translate(117,169)"/>
<path d="M0 0 C0.66 0.33 1.32 0.66 2 1 C-1.63 4.63 -5.26 8.26 -9 12 C-9 8.47601214 -8.44884893 7.98495633 -6.1875 5.4375 C-5.40439453 4.53837891 -5.40439453 4.53837891 -4.60546875 3.62109375 C-3 2 -3 2 0 0 Z " fill="#8B8B8B" transform="translate(214,256)"/>
<path d="M0 0 C2.52259061 1.97420135 2.9929808 2.96745642 3.6875 6.1875 C3.790625 7.115625 3.89375 8.04375 4 9 C3.01 9 2.02 9 1 9 C-0.4783226 6.04335481 -0.06032783 3.25770263 0 0 Z " fill="#9F9F9F" transform="translate(186,138)"/>
<path d="M0 0 C0.33 0.66 0.66 1.32 1 2 C-1.64 2.33 -4.28 2.66 -7 3 C-7 2.01 -7 1.02 -7 0 C-3.88407501 -1.03864166 -2.9737344 -1.09036928 0 0 Z " fill="#8D8D8D" transform="translate(357,240)"/>
<path d="M0 0 C0.99 0 1.98 0 3 0 C2.67 2.31 2.34 4.62 2 7 C1.01 6.67 0.02 6.34 -1 6 C-0.67 4.02 -0.34 2.04 0 0 Z " fill="#868686" transform="translate(185,403)"/>
<path d="M0 0 C2.97 0.33 5.94 0.66 9 1 C9 1.99 9 2.98 9 4 C5.85262818 3.30058404 2.97411124 2.23921302 0 1 C0 0.67 0 0.34 0 0 Z " fill="#7A7A7A" transform="translate(357,312)"/>
<path d="M0 0 C0.66 0.33 1.32 0.66 2 1 C1.21625 1.763125 0.4325 2.52625 -0.375 3.3125 C-3.07257717 5.90891805 -3.07257717 5.90891805 -5 9 C-5.3125 6.75 -5.3125 6.75 -5 4 C-2.5 1.6875 -2.5 1.6875 0 0 Z " fill="#56B256" transform="translate(38,107)"/>
<path d="M0 0 C0.66 0.33 1.32 0.66 2 1 C1.360625 1.78375 0.72125 2.5675 0.0625 3.375 C-1.98142313 5.79539281 -1.98142313 5.79539281 -3 8 C-3.66 6.68 -4.32 5.36 -5 4 C-3.35 2.68 -1.7 1.36 0 0 Z " fill="#D7EAD7" transform="translate(100,90)"/>
</svg>
